# xmcd
#
# Track frame offsets:
#	150
#	19272
#	36167
#	72120
#	106902
#	135290
#	167340
#	199335
#	232265
#	274662
#	294655
#
# Disc length: 4328
#
# Revision: 2
# Processed by: cddbd v1.5.1PL0 Copyright (c) Steve Scherf et al.
# Submitted via: CDex 1.51
# Normalized: r0:DSETVAR1,TSWAP
#
DISCID=9a10e60b
DTITLE=Various Artist - Monochrome disc 4
DYEAR=1950
DGENRE=Jazz
TTITLE0=Miles Davis - Dear old Stockholm
TTITLE1=Clifford Brown - Easy Living
TTITLE2=John Coltrane - I'm Old Fashioned
TTITLE3=Sonny Rollins - Softly as in a Morning Sunrise
TTITLE4=Art Blakey and The Jazz Messengers - Blues March
TTITLE5=Julian "Cannonball" Adderley - Love for Sale
TTITLE6=Lee Morgan - Candy
TTITLE7=Horace Silver - Song for My Father
TTITLE8=Sonny Clark - Cool Struttin'
TTITLE9=Bud Powell - Cleopatra's Dream
TTITLE10=Donald Byrd - Fuego
EXTD=YEAR: 1950
EXTT0=
EXTT1=
EXTT2=
EXTT3=
EXTT4=
EXTT5=
EXTT6=
EXTT7=
EXTT8=
EXTT9=
EXTT10=
PLAYORDER=
